<mxfile host="Electron" agent="Mozilla/5.0 (Windows NT 10.0; Win64; x64) AppleWebKit/537.36 (KHTML, like Gecko) draw.io/22.0.2 Chrome/114.0.5735.289 Electron/25.8.4 Safari/537.36" modified="2024-11-03T20:23:46.978Z" etag="R63UOigcjuXvRTHHC4fQ" version="22.0.2" type="device">
  <diagram name="Page-1" id="2c0d36ab-eaac-3732-788b-9136903baeff">
    <mxGraphModel dx="1262" dy="592" grid="1" gridSize="10" guides="1" tooltips="1" connect="1" arrows="1" fold="1" page="1" pageScale="1.5" pageWidth="1169" pageHeight="827" background="none" math="0" shadow="0">
      <root>
        <mxCell id="0" />
        <mxCell id="1" parent="0" />
        <mxCell id="123" value="" style="fillColor=#AE4132;strokeColor=none;opacity=30;" parent="1" vertex="1">
          <mxGeometry x="747" y="175.50000000000003" width="210" height="99.99999999999994" as="geometry" />
        </mxCell>
        <mxCell id="122" value="" style="fillColor=#10739E;strokeColor=none;opacity=30;" parent="1" vertex="1">
          <mxGeometry x="20" y="325.5" width="1630" height="100" as="geometry" />
        </mxCell>
        <mxCell id="118" value="" style="fillColor=#F2931E;strokeColor=none;opacity=30;" parent="1" vertex="1">
          <mxGeometry x="140" y="452.75" width="150" height="445.5" as="geometry" />
        </mxCell>
        <mxCell id="111" value="" style="fillColor=#D9EAD3;strokeColor=none" parent="1" vertex="1">
          <mxGeometry x="747" y="59.5" width="210" height="90.5" as="geometry" />
        </mxCell>
        <mxCell id="110" value="" style="fillColor=#12AAB5;strokeColor=none;opacity=30;" parent="1" vertex="1">
          <mxGeometry x="1030" y="685.5" width="150" height="80" as="geometry" />
        </mxCell>
        <mxCell id="2" value="Comité de dirección" style="rounded=1;fillColor=#23445D;gradientColor=none;strokeColor=none;fontColor=#FFFFFF;fontStyle=1;fontFamily=Tahoma;fontSize=14" parent="1" vertex="1">
          <mxGeometry x="757" y="185.5" width="190" height="80" as="geometry" />
        </mxCell>
        <mxCell id="4" value="Director de Recursos &#xa;Humanos" style="rounded=1;fillColor=#23445D;gradientColor=none;strokeColor=none;fontColor=#FFFFFF;fontStyle=1;fontFamily=Tahoma;fontSize=14" parent="1" vertex="1">
          <mxGeometry x="1429.9999999999998" y="335.5" width="190" height="80" as="geometry" />
        </mxCell>
        <mxCell id="9" value="" style="edgeStyle=elbowEdgeStyle;elbow=vertical;strokeWidth=2;rounded=0" parent="1" source="2" target="4" edge="1">
          <mxGeometry x="337" y="215.5" width="100" height="100" as="geometry">
            <mxPoint x="337" y="315.5" as="sourcePoint" />
            <mxPoint x="437" y="215.5" as="targetPoint" />
          </mxGeometry>
        </mxCell>
        <mxCell id="10" value="Director Comercial" style="rounded=1;fillColor=#23445D;gradientColor=none;strokeColor=none;fontColor=#FFFFFF;fontStyle=1;fontFamily=Tahoma;fontSize=14" parent="1" vertex="1">
          <mxGeometry x="840" y="335.5" width="190" height="80" as="geometry" />
        </mxCell>
        <mxCell id="12" value="Fleet Director" style="rounded=1;fillColor=#23445D;gradientColor=none;strokeColor=none;fontColor=#FFFFFF;fontStyle=1;fontFamily=Tahoma;fontSize=14" parent="1" vertex="1">
          <mxGeometry x="526.9999999999999" y="335.5" width="190" height="80" as="geometry" />
        </mxCell>
        <mxCell id="13" value="Director de Finanzas" style="rounded=1;fillColor=#23445D;gradientColor=none;strokeColor=none;fontColor=#FFFFFF;fontStyle=1;fontFamily=Tahoma;fontSize=14" parent="1" vertex="1">
          <mxGeometry x="30" y="335.5" width="190" height="80" as="geometry" />
        </mxCell>
        <mxCell id="16" value="Administración &#xa;y tasas" style="rounded=1;fillColor=#23445D;gradientColor=none;strokeColor=none;fontColor=#FFFFFF;fontStyle=1;fontFamily=Tahoma;fontSize=14" parent="1" vertex="1">
          <mxGeometry x="150" y="465.5" width="130" height="60" as="geometry" />
        </mxCell>
        <mxCell id="17" value="&#xa;Purchasing  &#xa;&amp; Facilities&#xa;" style="rounded=1;fillColor=#23445D;gradientColor=none;strokeColor=none;fontColor=#FFFFFF;fontStyle=1;fontFamily=Tahoma;fontSize=14" parent="1" vertex="1">
          <mxGeometry x="150" y="550" width="130" height="60" as="geometry" />
        </mxCell>
        <mxCell id="18" value="IT" style="rounded=1;fillColor=#23445D;gradientColor=none;strokeColor=none;fontColor=#FFFFFF;fontStyle=1;fontFamily=Tahoma;fontSize=14" parent="1" vertex="1">
          <mxGeometry x="150" y="645.5" width="130" height="60" as="geometry" />
        </mxCell>
        <mxCell id="19" value="Controlling" style="rounded=1;fillColor=#23445D;gradientColor=none;strokeColor=none;fontColor=#FFFFFF;fontStyle=1;fontFamily=Tahoma;fontSize=14" parent="1" vertex="1">
          <mxGeometry x="150" y="725.5" width="130" height="60" as="geometry" />
        </mxCell>
        <mxCell id="20" value="Calidad y CSR" style="rounded=1;fillColor=#23445D;gradientColor=none;strokeColor=none;fontColor=#FFFFFF;fontStyle=1;fontFamily=Tahoma;fontSize=14" parent="1" vertex="1">
          <mxGeometry x="150" y="810.5" width="130" height="60" as="geometry" />
        </mxCell>
        <mxCell id="28" value="Marketing y &#xa;Comunicacion" style="rounded=1;fillColor=#23445D;gradientColor=none;strokeColor=none;fontColor=#FFFFFF;fontStyle=1;fontFamily=Tahoma;fontSize=14" parent="1" vertex="1">
          <mxGeometry x="890" y="490" width="130" height="60" as="geometry" />
        </mxCell>
        <mxCell id="32" value="Key Account &#xa;Manager&#xa;" style="rounded=1;fillColor=#23445D;gradientColor=none;strokeColor=none;fontColor=#FFFFFF;fontStyle=1;fontFamily=Tahoma;fontSize=14" parent="1" vertex="1">
          <mxGeometry x="740" y="490" width="130" height="60" as="geometry" />
        </mxCell>
        <mxCell id="44" value="&#xa;Head Regional&#xa;Manager&#xa;" style="rounded=1;fillColor=#23445D;gradientColor=none;strokeColor=none;fontColor=#FFFFFF;fontStyle=1;fontFamily=Tahoma;fontSize=14" parent="1" vertex="1">
          <mxGeometry x="1210" y="455.50000000000006" width="130" height="60" as="geometry" />
        </mxCell>
        <mxCell id="45" value="&#xa;Area Manager&#xa;" style="rounded=1;fillColor=#23445D;gradientColor=none;strokeColor=none;fontColor=#FFFFFF;fontStyle=1;fontFamily=Tahoma;fontSize=14" parent="1" vertex="1">
          <mxGeometry x="1210" y="545.5" width="130" height="60" as="geometry" />
        </mxCell>
        <mxCell id="46" value="&#xa;Station&#xa;Manager&#xa;" style="rounded=1;fillColor=#23445D;gradientColor=none;strokeColor=none;fontColor=#FFFFFF;fontStyle=1;fontFamily=Tahoma;fontSize=14" parent="1" vertex="1">
          <mxGeometry x="1210" y="635.5" width="130" height="60" as="geometry" />
        </mxCell>
        <mxCell id="47" value="&#xa;Team Leader&#xa;" style="rounded=1;fillColor=#23445D;gradientColor=none;strokeColor=none;fontColor=#FFFFFF;fontStyle=1;fontFamily=Tahoma;fontSize=14" parent="1" vertex="1">
          <mxGeometry x="1210" y="725.5000000000001" width="130" height="60" as="geometry" />
        </mxCell>
        <mxCell id="48" value="Desarrollo y &#xa;Formación&#xa;" style="rounded=1;fillColor=#23445D;gradientColor=none;strokeColor=none;fontColor=#FFFFFF;fontStyle=1;fontFamily=Tahoma;fontSize=14" parent="1" vertex="1">
          <mxGeometry x="1460" y="455.50000000000006" width="130" height="60" as="geometry" />
        </mxCell>
        <mxCell id="49" value="Reclutamiento" style="rounded=1;fillColor=#23445D;gradientColor=none;strokeColor=none;fontColor=#FFFFFF;fontStyle=1;fontFamily=Tahoma;fontSize=14" parent="1" vertex="1">
          <mxGeometry x="1460" y="545.5" width="130" height="60" as="geometry" />
        </mxCell>
        <mxCell id="50" value="&#xa;Administración&#xa;de Recursos&#xa;Humanos&#xa;" style="rounded=1;fillColor=#23445D;gradientColor=none;strokeColor=none;fontColor=#FFFFFF;fontStyle=1;fontFamily=Tahoma;fontSize=14" parent="1" vertex="1">
          <mxGeometry x="1460" y="635.5" width="130" height="60" as="geometry" />
        </mxCell>
        <mxCell id="59" value="" style="edgeStyle=elbowEdgeStyle;elbow=vertical;strokeWidth=2;rounded=0" parent="1" source="2" target="12" edge="1">
          <mxGeometry x="347" y="225.5" width="100" height="100" as="geometry">
            <mxPoint x="861.9999999999999" y="275.5" as="sourcePoint" />
            <mxPoint x="1466.9999999999998" y="345.5" as="targetPoint" />
          </mxGeometry>
        </mxCell>
        <mxCell id="61" value="" style="edgeStyle=elbowEdgeStyle;elbow=vertical;strokeWidth=2;rounded=0" parent="1" source="2" target="13" edge="1">
          <mxGeometry x="-23" y="135.5" width="100" height="100" as="geometry">
            <mxPoint x="-23" y="235.5" as="sourcePoint" />
            <mxPoint x="77" y="135.5" as="targetPoint" />
          </mxGeometry>
        </mxCell>
        <mxCell id="64" value="" style="edgeStyle=elbowEdgeStyle;elbow=horizontal;strokeWidth=2;rounded=0;" parent="1" edge="1">
          <mxGeometry x="-23" y="135.5" width="100" height="100" as="geometry">
            <mxPoint x="120" y="414" as="sourcePoint" />
            <mxPoint x="150" y="494.5" as="targetPoint" />
            <Array as="points">
              <mxPoint x="120" y="494.5" />
              <mxPoint x="130" y="474.5" />
              <mxPoint x="120" y="454.5" />
              <mxPoint x="202" y="420" />
            </Array>
          </mxGeometry>
        </mxCell>
        <mxCell id="65" value="" style="edgeStyle=elbowEdgeStyle;elbow=horizontal;strokeWidth=2;rounded=0" parent="1" source="13" target="17" edge="1">
          <mxGeometry x="-23" y="135.5" width="100" height="100" as="geometry">
            <mxPoint x="-23" y="235.5" as="sourcePoint" />
            <mxPoint x="77" y="135.5" as="targetPoint" />
            <Array as="points">
              <mxPoint x="120" y="520" />
              <mxPoint x="202" y="475.5" />
            </Array>
          </mxGeometry>
        </mxCell>
        <mxCell id="66" value="" style="edgeStyle=elbowEdgeStyle;elbow=horizontal;strokeWidth=2;rounded=0" parent="1" edge="1">
          <mxGeometry x="-23" y="135.5" width="100" height="100" as="geometry">
            <mxPoint x="120" y="425.5" as="sourcePoint" />
            <mxPoint x="150" y="676" as="targetPoint" />
            <Array as="points">
              <mxPoint x="120" y="690" />
            </Array>
          </mxGeometry>
        </mxCell>
        <mxCell id="68" value="" style="edgeStyle=elbowEdgeStyle;elbow=horizontal;strokeWidth=2;rounded=0" parent="1" source="13" target="20" edge="1">
          <mxGeometry x="-23" y="135.5" width="100" height="100" as="geometry">
            <mxPoint x="-23" y="235.5" as="sourcePoint" />
            <mxPoint x="77" y="135.5" as="targetPoint" />
            <Array as="points">
              <mxPoint x="120" y="700" />
              <mxPoint x="140" y="560" />
              <mxPoint x="202" y="615.5" />
            </Array>
          </mxGeometry>
        </mxCell>
        <mxCell id="104" value="" style="edgeStyle=elbowEdgeStyle;elbow=vertical;strokeWidth=2;rounded=0" parent="1" source="4" target="48" edge="1">
          <mxGeometry x="-23" y="135.5" width="100" height="100" as="geometry">
            <mxPoint x="-23" y="235.5" as="sourcePoint" />
            <mxPoint x="77" y="135.5" as="targetPoint" />
          </mxGeometry>
        </mxCell>
        <mxCell id="MI_ktkqq8Uqgu8UM0DYB-123" value="RCM Director" style="rounded=1;fillColor=#23445D;gradientColor=none;strokeColor=none;fontColor=#FFFFFF;fontStyle=1;fontFamily=Tahoma;fontSize=14" parent="1" vertex="1">
          <mxGeometry x="299.9999999999999" y="335.5" width="190" height="80" as="geometry" />
        </mxCell>
        <mxCell id="MI_ktkqq8Uqgu8UM0DYB-124" value="Director de Operaciones" style="rounded=1;fillColor=#23445D;gradientColor=none;strokeColor=none;fontColor=#FFFFFF;fontStyle=1;fontFamily=Tahoma;fontSize=14" parent="1" vertex="1">
          <mxGeometry x="1180" y="335.5" width="190" height="80" as="geometry" />
        </mxCell>
        <mxCell id="MI_ktkqq8Uqgu8UM0DYB-125" value="" style="edgeStyle=elbowEdgeStyle;elbow=vertical;strokeWidth=2;rounded=0" parent="1" edge="1">
          <mxGeometry x="-23" y="135.5" width="100" height="100" as="geometry">
            <mxPoint x="1274.5" y="415.5" as="sourcePoint" />
            <mxPoint x="1274.5" y="455.5" as="targetPoint" />
            <Array as="points">
              <mxPoint x="1412.5" y="429.5" />
            </Array>
          </mxGeometry>
        </mxCell>
        <mxCell id="MI_ktkqq8Uqgu8UM0DYB-128" value="" style="edgeStyle=elbowEdgeStyle;elbow=horizontal;strokeWidth=2;rounded=0" parent="1" edge="1">
          <mxGeometry x="-23" y="135.5" width="100" height="100" as="geometry">
            <mxPoint x="1210" y="480" as="sourcePoint" />
            <mxPoint x="1210" y="570" as="targetPoint" />
            <Array as="points">
              <mxPoint x="1185" y="529.5" />
            </Array>
          </mxGeometry>
        </mxCell>
        <mxCell id="MI_ktkqq8Uqgu8UM0DYB-129" value="" style="edgeStyle=elbowEdgeStyle;elbow=horizontal;strokeWidth=2;rounded=0" parent="1" edge="1">
          <mxGeometry x="-23" y="135.5" width="100" height="100" as="geometry">
            <mxPoint x="1210" y="580" as="sourcePoint" />
            <mxPoint x="1210" y="670" as="targetPoint" />
            <Array as="points">
              <mxPoint x="1185" y="629.5" />
            </Array>
          </mxGeometry>
        </mxCell>
        <mxCell id="MI_ktkqq8Uqgu8UM0DYB-130" value="" style="edgeStyle=elbowEdgeStyle;elbow=horizontal;strokeWidth=2;rounded=0;entryX=0;entryY=0.5;entryDx=0;entryDy=0;" parent="1" edge="1" target="47">
          <mxGeometry x="-23" y="135.5" width="100" height="100" as="geometry">
            <mxPoint x="1210" y="680" as="sourcePoint" />
            <mxPoint x="1210" y="770" as="targetPoint" />
            <Array as="points">
              <mxPoint x="1185" y="729.5" />
            </Array>
          </mxGeometry>
        </mxCell>
        <mxCell id="MI_ktkqq8Uqgu8UM0DYB-133" value="" style="edgeStyle=elbowEdgeStyle;elbow=vertical;rounded=0;strokeWidth=2" parent="1" edge="1">
          <mxGeometry x="-23" y="135.5" width="100" height="100" as="geometry">
            <mxPoint x="410" y="300" as="sourcePoint" />
            <mxPoint x="410" y="340" as="targetPoint" />
          </mxGeometry>
        </mxCell>
        <mxCell id="MI_ktkqq8Uqgu8UM0DYB-134" value="" style="edgeStyle=elbowEdgeStyle;elbow=vertical;rounded=0;strokeWidth=2" parent="1" edge="1">
          <mxGeometry x="-23" y="135.5" width="100" height="100" as="geometry">
            <mxPoint x="1280" y="305.5" as="sourcePoint" />
            <mxPoint x="1280" y="335.5" as="targetPoint" />
          </mxGeometry>
        </mxCell>
        <mxCell id="MI_ktkqq8Uqgu8UM0DYB-136" value="" style="edgeStyle=elbowEdgeStyle;elbow=horizontal;strokeWidth=2;rounded=0;" parent="1" edge="1">
          <mxGeometry x="-23" y="135.5" width="100" height="100" as="geometry">
            <mxPoint x="120" y="420" as="sourcePoint" />
            <mxPoint x="150" y="760.5" as="targetPoint" />
            <Array as="points">
              <mxPoint x="120" y="619.5" />
              <mxPoint x="140" y="479.5" />
              <mxPoint x="202" y="535" />
            </Array>
          </mxGeometry>
        </mxCell>
        <mxCell id="MI_ktkqq8Uqgu8UM0DYB-139" value="" style="edgeStyle=elbowEdgeStyle;elbow=vertical;strokeWidth=2;rounded=0;entryX=0.579;entryY=0;entryDx=0;entryDy=0;entryPerimeter=0;" parent="1" edge="1" target="10">
          <mxGeometry x="-23" y="135.5" width="100" height="100" as="geometry">
            <mxPoint x="950" y="300" as="sourcePoint" />
            <mxPoint x="964.5" y="335.5" as="targetPoint" />
          </mxGeometry>
        </mxCell>
        <mxCell id="MI_ktkqq8Uqgu8UM0DYB-140" value="" style="edgeStyle=elbowEdgeStyle;elbow=vertical;strokeWidth=2;rounded=0;entryX=0.462;entryY=0.075;entryDx=0;entryDy=0;entryPerimeter=0;" parent="1" source="10" edge="1" target="32">
          <mxGeometry x="-23" y="135.5" width="100" height="100" as="geometry">
            <mxPoint x="1027" y="425.5" as="sourcePoint" />
            <mxPoint x="760" y="580" as="targetPoint" />
            <Array as="points">
              <mxPoint x="950" y="450" />
              <mxPoint x="980" y="450" />
              <mxPoint x="1000" y="450" />
              <mxPoint x="1000" y="440" />
              <mxPoint x="770" y="450" />
              <mxPoint x="580" y="456" />
            </Array>
          </mxGeometry>
        </mxCell>
        <mxCell id="sW6XZj63KOnHWxAYgvJL-123" value="Servicio al cliente,&#xa; GDS y Telesales" style="rounded=1;fillColor=#23445D;gradientColor=none;strokeColor=none;fontColor=#FFFFFF;fontStyle=1;fontFamily=Tahoma;fontSize=14" vertex="1" parent="1">
          <mxGeometry x="1040" y="490" width="130" height="60" as="geometry" />
        </mxCell>
        <mxCell id="sW6XZj63KOnHWxAYgvJL-124" value="" style="edgeStyle=elbowEdgeStyle;elbow=vertical;strokeWidth=2;rounded=0;entryX=0.449;entryY=-0.023;entryDx=0;entryDy=0;entryPerimeter=0;exitX=0.571;exitY=0.994;exitDx=0;exitDy=0;exitPerimeter=0;" edge="1" parent="1" source="10" target="28">
          <mxGeometry x="-23" y="135.5" width="100" height="100" as="geometry">
            <mxPoint x="980" y="410" as="sourcePoint" />
            <mxPoint x="770" y="490" as="targetPoint" />
            <Array as="points">
              <mxPoint x="960" y="450" />
              <mxPoint x="590" y="466" />
            </Array>
          </mxGeometry>
        </mxCell>
        <mxCell id="sW6XZj63KOnHWxAYgvJL-126" value="" style="edgeStyle=elbowEdgeStyle;elbow=vertical;strokeWidth=2;rounded=0;exitX=0.571;exitY=0.994;exitDx=0;exitDy=0;exitPerimeter=0;entryX=0.5;entryY=0;entryDx=0;entryDy=0;" edge="1" parent="1" source="10" target="sW6XZj63KOnHWxAYgvJL-123">
          <mxGeometry x="-23" y="135.5" width="100" height="100" as="geometry">
            <mxPoint x="1008" y="425" as="sourcePoint" />
            <mxPoint x="928" y="499" as="targetPoint" />
            <Array as="points">
              <mxPoint x="1040" y="450" />
              <mxPoint x="600" y="476" />
            </Array>
          </mxGeometry>
        </mxCell>
        <mxCell id="sW6XZj63KOnHWxAYgvJL-131" value="Call Center" style="rounded=1;fillColor=#23445D;gradientColor=none;strokeColor=none;fontColor=#FFFFFF;fontStyle=1;fontFamily=Tahoma;fontSize=14" vertex="1" parent="1">
          <mxGeometry x="1040" y="695.5" width="130" height="60" as="geometry" />
        </mxCell>
        <mxCell id="sW6XZj63KOnHWxAYgvJL-132" value="Administracion &#xa;de Ventas" style="rounded=1;fillColor=#23445D;gradientColor=none;strokeColor=none;fontColor=#FFFFFF;fontStyle=1;fontFamily=Tahoma;fontSize=14" vertex="1" parent="1">
          <mxGeometry x="1040" y="590" width="130" height="60" as="geometry" />
        </mxCell>
        <mxCell id="sW6XZj63KOnHWxAYgvJL-133" value="Mantenimiento" style="rounded=1;fillColor=#23445D;gradientColor=none;strokeColor=none;fontColor=#FFFFFF;fontStyle=1;fontFamily=Tahoma;fontSize=14" vertex="1" parent="1">
          <mxGeometry x="587" y="730" width="130" height="60" as="geometry" />
        </mxCell>
        <mxCell id="sW6XZj63KOnHWxAYgvJL-134" value="Seguros y &#xa;Reparaciones" style="rounded=1;fillColor=#23445D;gradientColor=none;strokeColor=none;fontColor=#FFFFFF;fontStyle=1;fontFamily=Tahoma;fontSize=14" vertex="1" parent="1">
          <mxGeometry x="590" y="645.5" width="130" height="60" as="geometry" />
        </mxCell>
        <mxCell id="sW6XZj63KOnHWxAYgvJL-135" value="Planning" style="rounded=1;fillColor=#23445D;gradientColor=none;strokeColor=none;fontColor=#FFFFFF;fontStyle=1;fontFamily=Tahoma;fontSize=14" vertex="1" parent="1">
          <mxGeometry x="590" y="545.5" width="130" height="60" as="geometry" />
        </mxCell>
        <mxCell id="sW6XZj63KOnHWxAYgvJL-136" value="Defleeting y &#xa;Remarketing" style="rounded=1;fillColor=#23445D;gradientColor=none;strokeColor=none;fontColor=#FFFFFF;fontStyle=1;fontFamily=Tahoma;fontSize=14" vertex="1" parent="1">
          <mxGeometry x="590" y="460" width="130" height="60" as="geometry" />
        </mxCell>
        <mxCell id="sW6XZj63KOnHWxAYgvJL-137" value="Capacity" style="rounded=1;fillColor=#23445D;gradientColor=none;strokeColor=none;fontColor=#FFFFFF;fontStyle=1;fontFamily=Tahoma;fontSize=14" vertex="1" parent="1">
          <mxGeometry x="360" y="465.5" width="130" height="60" as="geometry" />
        </mxCell>
        <mxCell id="sW6XZj63KOnHWxAYgvJL-138" value="Defleeting y &#xa;Remarketing" style="rounded=1;fillColor=#23445D;gradientColor=none;strokeColor=none;fontColor=#FFFFFF;fontStyle=1;fontFamily=Tahoma;fontSize=14" vertex="1" parent="1">
          <mxGeometry x="360" y="550" width="130" height="60" as="geometry" />
        </mxCell>
        <mxCell id="sW6XZj63KOnHWxAYgvJL-139" value="Revenue" style="rounded=1;fillColor=#23445D;gradientColor=none;strokeColor=none;fontColor=#FFFFFF;fontStyle=1;fontFamily=Tahoma;fontSize=14" vertex="1" parent="1">
          <mxGeometry x="360" y="645.5" width="130" height="60" as="geometry" />
        </mxCell>
        <mxCell id="sW6XZj63KOnHWxAYgvJL-140" value="" style="fillColor=#F2931E;strokeColor=none;opacity=30;" vertex="1" parent="1">
          <mxGeometry x="577" y="452.75" width="150" height="367.25" as="geometry" />
        </mxCell>
        <mxCell id="sW6XZj63KOnHWxAYgvJL-141" value="" style="fillColor=#F2931E;strokeColor=none;opacity=30;" vertex="1" parent="1">
          <mxGeometry x="350" y="452.75" width="150" height="280" as="geometry" />
        </mxCell>
        <mxCell id="sW6XZj63KOnHWxAYgvJL-143" value="" style="fillColor=#F2931E;strokeColor=none;opacity=30;" vertex="1" parent="1">
          <mxGeometry x="1200" y="450.5" width="150" height="360" as="geometry" />
        </mxCell>
        <mxCell id="sW6XZj63KOnHWxAYgvJL-144" value="" style="fillColor=#F2931E;strokeColor=none;opacity=30;" vertex="1" parent="1">
          <mxGeometry x="1450" y="450.5" width="150" height="270" as="geometry" />
        </mxCell>
        <mxCell id="sW6XZj63KOnHWxAYgvJL-145" style="edgeStyle=orthogonalEdgeStyle;rounded=0;orthogonalLoop=1;jettySize=auto;html=1;exitX=0.5;exitY=1;exitDx=0;exitDy=0;" edge="1" parent="1" source="sW6XZj63KOnHWxAYgvJL-140" target="sW6XZj63KOnHWxAYgvJL-140">
          <mxGeometry relative="1" as="geometry" />
        </mxCell>
        <mxCell id="sW6XZj63KOnHWxAYgvJL-146" value="" style="edgeStyle=elbowEdgeStyle;elbow=horizontal;strokeWidth=2;rounded=0;" edge="1" parent="1">
          <mxGeometry x="-23" y="135.5" width="100" height="100" as="geometry">
            <mxPoint x="557" y="426.75" as="sourcePoint" />
            <mxPoint x="587" y="767.25" as="targetPoint" />
            <Array as="points">
              <mxPoint x="557" y="626.25" />
              <mxPoint x="577" y="486.25" />
              <mxPoint x="639" y="541.75" />
            </Array>
          </mxGeometry>
        </mxCell>
        <mxCell id="sW6XZj63KOnHWxAYgvJL-147" value="" style="edgeStyle=elbowEdgeStyle;elbow=horizontal;strokeWidth=2;rounded=0;" edge="1" parent="1">
          <mxGeometry x="-23" y="135.5" width="100" height="100" as="geometry">
            <mxPoint x="557" y="420" as="sourcePoint" />
            <mxPoint x="587" y="680" as="targetPoint" />
            <Array as="points">
              <mxPoint x="557" y="654.5" />
              <mxPoint x="557" y="539" />
              <mxPoint x="577" y="399" />
              <mxPoint x="639" y="454.5" />
            </Array>
          </mxGeometry>
        </mxCell>
        <mxCell id="sW6XZj63KOnHWxAYgvJL-149" value="" style="fillColor=#12AAB5;strokeColor=none;opacity=30;" vertex="1" parent="1">
          <mxGeometry x="1030" y="583.63" width="150" height="80" as="geometry" />
        </mxCell>
        <mxCell id="sW6XZj63KOnHWxAYgvJL-150" value="" style="fillColor=#12AAB5;strokeColor=none;opacity=30;" vertex="1" parent="1">
          <mxGeometry x="730" y="480" width="450" height="80" as="geometry" />
        </mxCell>
        <mxCell id="sW6XZj63KOnHWxAYgvJL-151" value="" style="edgeStyle=elbowEdgeStyle;elbow=vertical;rounded=0;strokeWidth=2" edge="1" parent="1">
          <mxGeometry x="-23" y="135.5" width="100" height="100" as="geometry">
            <mxPoint x="1104.5" y="550" as="sourcePoint" />
            <mxPoint x="1104.5" y="590" as="targetPoint" />
          </mxGeometry>
        </mxCell>
        <mxCell id="sW6XZj63KOnHWxAYgvJL-153" value="" style="edgeStyle=elbowEdgeStyle;elbow=vertical;rounded=0;strokeWidth=2;entryX=0.496;entryY=0.075;entryDx=0;entryDy=0;entryPerimeter=0;" edge="1" parent="1" target="sW6XZj63KOnHWxAYgvJL-131">
          <mxGeometry x="-23" y="135.5" width="100" height="100" as="geometry">
            <mxPoint x="1104.5" y="650" as="sourcePoint" />
            <mxPoint x="1104.5" y="690" as="targetPoint" />
          </mxGeometry>
        </mxCell>
        <mxCell id="sW6XZj63KOnHWxAYgvJL-155" value="" style="edgeStyle=elbowEdgeStyle;elbow=horizontal;strokeWidth=2;rounded=0;" edge="1" parent="1">
          <mxGeometry x="-23" y="135.5" width="100" height="100" as="geometry">
            <mxPoint x="557" y="420" as="sourcePoint" />
            <mxPoint x="587" y="583.63" as="targetPoint" />
            <Array as="points">
              <mxPoint x="557" y="442.63" />
              <mxPoint x="577" y="302.63" />
              <mxPoint x="639" y="358.13" />
            </Array>
          </mxGeometry>
        </mxCell>
        <mxCell id="sW6XZj63KOnHWxAYgvJL-156" value="" style="edgeStyle=elbowEdgeStyle;elbow=horizontal;strokeWidth=2;rounded=0;" edge="1" parent="1">
          <mxGeometry x="-23" y="135.5" width="100" height="100" as="geometry">
            <mxPoint x="557" y="420" as="sourcePoint" />
            <mxPoint x="587" y="499.13" as="targetPoint" />
            <Array as="points">
              <mxPoint x="557" y="358.13" />
              <mxPoint x="577" y="218.13" />
              <mxPoint x="639" y="273.63" />
            </Array>
          </mxGeometry>
        </mxCell>
        <mxCell id="sW6XZj63KOnHWxAYgvJL-157" value="" style="edgeStyle=elbowEdgeStyle;elbow=horizontal;strokeWidth=2;rounded=0;entryX=0.067;entryY=0.169;entryDx=0;entryDy=0;entryPerimeter=0;" edge="1" parent="1" target="sW6XZj63KOnHWxAYgvJL-141">
          <mxGeometry x="-23" y="135.5" width="100" height="100" as="geometry">
            <mxPoint x="320" y="415" as="sourcePoint" />
            <mxPoint x="350" y="755.5" as="targetPoint" />
            <Array as="points">
              <mxPoint x="320" y="614.5" />
              <mxPoint x="340" y="474.5" />
              <mxPoint x="402" y="530" />
            </Array>
          </mxGeometry>
        </mxCell>
        <mxCell id="sW6XZj63KOnHWxAYgvJL-158" value="" style="edgeStyle=elbowEdgeStyle;elbow=horizontal;strokeWidth=2;rounded=0;entryX=0.067;entryY=0.812;entryDx=0;entryDy=0;entryPerimeter=0;" edge="1" parent="1" target="sW6XZj63KOnHWxAYgvJL-141">
          <mxGeometry x="-23" y="135.5" width="100" height="100" as="geometry">
            <mxPoint x="320" y="415.5" as="sourcePoint" />
            <mxPoint x="350" y="756" as="targetPoint" />
            <Array as="points">
              <mxPoint x="320" y="615" />
              <mxPoint x="340" y="475" />
              <mxPoint x="402" y="530.5" />
            </Array>
          </mxGeometry>
        </mxCell>
        <mxCell id="sW6XZj63KOnHWxAYgvJL-159" value="" style="edgeStyle=elbowEdgeStyle;elbow=horizontal;strokeWidth=2;rounded=0;entryX=0.067;entryY=0.454;entryDx=0;entryDy=0;entryPerimeter=0;" edge="1" parent="1" target="sW6XZj63KOnHWxAYgvJL-141">
          <mxGeometry x="-23" y="135.5" width="100" height="100" as="geometry">
            <mxPoint x="320" y="415.5" as="sourcePoint" />
            <mxPoint x="350" y="756" as="targetPoint" />
            <Array as="points">
              <mxPoint x="320" y="615" />
              <mxPoint x="340" y="475" />
              <mxPoint x="402" y="530.5" />
            </Array>
          </mxGeometry>
        </mxCell>
        <mxCell id="sW6XZj63KOnHWxAYgvJL-161" value="" style="edgeStyle=elbowEdgeStyle;elbow=vertical;rounded=0;strokeWidth=2" edge="1" parent="1">
          <mxGeometry x="-23" y="135.5" width="100" height="100" as="geometry">
            <mxPoint x="1524.5" y="605.5" as="sourcePoint" />
            <mxPoint x="1525" y="640" as="targetPoint" />
          </mxGeometry>
        </mxCell>
        <mxCell id="sW6XZj63KOnHWxAYgvJL-162" value="" style="edgeStyle=elbowEdgeStyle;elbow=vertical;rounded=0;strokeWidth=2;exitX=0.467;exitY=0.257;exitDx=0;exitDy=0;exitPerimeter=0;" edge="1" parent="1" source="sW6XZj63KOnHWxAYgvJL-144">
          <mxGeometry x="-23" y="135.5" width="100" height="100" as="geometry">
            <mxPoint x="1534.5" y="615.5" as="sourcePoint" />
            <mxPoint x="1520" y="550" as="targetPoint" />
            <Array as="points">
              <mxPoint x="1520" y="530" />
            </Array>
          </mxGeometry>
        </mxCell>
        <mxCell id="sW6XZj63KOnHWxAYgvJL-163" value="Country &#xa;Manager" style="rounded=1;fillColor=#23445D;gradientColor=none;strokeColor=none;fontColor=#FFFFFF;fontStyle=1;fontFamily=Tahoma;fontSize=14" vertex="1" parent="1">
          <mxGeometry x="757" y="64.75" width="190" height="80" as="geometry" />
        </mxCell>
      </root>
    </mxGraphModel>
  </diagram>
</mxfile>
